<svg width="32" height="32" viewBox="0 0 32 32" fill="none" xmlns="http://www.w3.org/2000/svg">
<g opacity="0.72">
<path d="M16.0001 25.3333L10.7067 28.5067C10.292 28.7559 9.81726 28.8875 9.33341 28.8875C8.84956 28.8875 8.37483 28.7559 7.96008 28.5067L3.96008 26.1067C3.56643 25.8702 3.24052 25.536 3.01393 25.1366C2.78734 24.7371 2.66775 24.2859 2.66675 23.8267V19.5067C2.66775 19.0474 2.78734 18.5962 3.01393 18.1968C3.24052 17.7973 3.56643 17.4632 3.96008 17.2267L9.33341 14M16.0001 25.3333V18M16.0001 25.3333L21.2934 28.5067C21.7082 28.7559 22.1829 28.8875 22.6667 28.8875C23.1506 28.8875 23.6253 28.7559 24.0401 28.5067L28.0401 26.1067C28.4337 25.8702 28.7596 25.536 28.9862 25.1366C29.2128 24.7371 29.3324 24.2859 29.3334 23.8267V19.5067C29.3324 19.0474 29.2128 18.5962 28.9862 18.1968C28.7596 17.7973 28.4337 17.4632 28.0401 17.2267L22.6667 14M16.0001 18L9.33341 14M16.0001 18L9.33341 22M16.0001 18L22.6667 14M16.0001 18L22.6667 22M16.0001 18V10.6667M9.33341 14V8.17334C9.33442 7.7141 9.45401 7.2629 9.6806 6.86345C9.90719 6.46401 10.2331 6.12984 10.6267 5.89334L14.6267 3.49334C15.0415 3.24415 15.5162 3.11251 16.0001 3.11251C16.4839 3.11251 16.9587 3.24415 17.3734 3.49334L21.3734 5.89334C21.7671 6.12984 22.093 6.46401 22.3196 6.86345C22.5462 7.2629 22.6657 7.7141 22.6667 8.17334V14M9.33341 22L3.01341 18.2M9.33341 22V28.8933M22.6667 22L28.9867 18.2M22.6667 22V28.8933M16.0001 10.6667L9.68008 6.86667M16.0001 10.6667L22.3201 6.86667" stroke="#879D12" stroke-width="1.5" stroke-linecap="round" stroke-linejoin="round"/>
</g>
</svg>
